<svg version="1.2" xmlns="http://www.w3.org/2000/svg" viewBox="0 0 276 270" width="276" height="270">
	<title>New Project</title>
	<style>
		.s0 { fill: none;stroke: #808080;stroke-width: 9 } 
		.s1 { fill: #808080;stroke: #808080;stroke-width: 4 } 
	</style>
	<path id="Shape 1" class="s0" d="m135.5 262c-69.4 0-125.5-56.1-125.5-125.5c0-69.4 56.1-125.5 125.5-125.5c69.4 0 125.5 56.1 125.5 125.5c0 69.4-56.1 125.5-125.5 125.5z" />
	<path id="Shape 5" class="s1" d="m65.1 190.4c-1.2-1.1-1.1-3 0.1-4.1l68.5-64.8c1.2-1.1 3-1.1 4.1 0.1c1.1 1.2 1.1 3-0.1 4.1l-68.5 64.8c-1.2 1.2-3 1.1-4.1-0.1zm70-68.8c1.1-1.2 2.9-1.2 4.1-0.1l68.5 64.8c1.2 1.1 1.2 3 0.1 4.1c-1.1 1.2-2.9 1.3-4.1 0.1l-68.5-64.8c-1.2-1.1-1.3-2.9-0.1-4.1z" />
	<path id="Shape 5 copy" class="s1" d="m64.1 144.4c-1.2-1.1-1.1-3 0.1-4.1l68.5-64.8c1.2-1.1 3-1.1 4.1 0.1c1.1 1.2 1.1 3-0.1 4.1l-68.5 64.8c-1.2 1.2-3 1.1-4.1-0.1zm70-68.8c1.1-1.2 2.9-1.2 4.1-0.1l68.5 64.8c1.2 1.1 1.2 3 0.1 4.1c-1.1 1.2-2.9 1.3-4.1 0.1l-68.5-64.8c-1.2-1.1-1.3-2.9-0.1-4.1z" />
</svg>