<svg id="Layer_1" data-name="Layer 1" xmlns="http://www.w3.org/2000/svg" viewBox="0 0 634.86 302.22"><title>121212</title><polyline points="362.69 283.22 33.69 283.22 191.35 19.1 192.69 21.22" style="fill:none;stroke:#47b3b3;stroke-miterlimit:10;stroke-width:20px"/><circle cx="378.19" cy="282.72" r="15" style="fill:none;stroke:#47b3b3;stroke-miterlimit:10;stroke-width:9px"/><circle cx="298.19" cy="248.72" r="13" style="fill:none;stroke:#47b3b3;stroke-miterlimit:10;stroke-width:9px"/><polygon points="337.49 235.27 180.58 23.27 197.58 10.96 360.48 237.37 337.49 235.27" style="fill:#47b3b3"/><polygon points="286.69 257.22 86.69 257.22 92.69 238.22 286.69 238.22 286.69 257.22" style="fill:#47b3b3"/><polygon points="25.36 250.44 0 255.94 141.81 10.32 149.35 34.06 25.36 250.44" style="fill:#47b3b3"/><path d="M661,245l210.24-1,99.56,78.57a2.79,2.79,0,0,1,.87,1.17L1017,441.6,987.49,487H824" transform="translate(-393.31 -203.78)" style="fill:none;stroke:#47b3b3;stroke-miterlimit:10;stroke-width:20px"/><circle cx="254.19" cy="41.72" r="13" style="fill:none;stroke:#47b3b3;stroke-miterlimit:10;stroke-width:9px"/><polygon points="430.24 290.99 309.95 131.21 333.32 130.49 446.38 278.84 430.24 290.99" style="fill:#47b3b3"/><polygon points="467.4 63.76 544.96 128.07 530.81 140.41 463.88 86.82 467.4 63.76" style="fill:#47b3b3"/><circle cx="566.19" cy="232.72" r="13" style="fill:none;stroke:#47b3b3;stroke-miterlimit:10;stroke-width:9px"/><polygon points="559.92 225.73 526 130.84 544.47 127.45 575.69 218.22 559.92 225.73" style="fill:#47b3b3"/></svg>