<svg id="Layer_1" data-name="Layer 1" xmlns="http://www.w3.org/2000/svg" viewBox="0 0 660.86 302.22"><title>4</title><polyline points="368.69 283.22 39.69 283.22 197.35 19.1 198.69 21.22" style="fill:none;stroke:#47b3b3;stroke-miterlimit:10;stroke-width:20px"/><circle cx="384.19" cy="282.72" r="15" style="fill:none;stroke:#47b3b3;stroke-miterlimit:10;stroke-width:9px"/><circle cx="304.19" cy="248.72" r="13" style="fill:none;stroke:#47b3b3;stroke-miterlimit:10;stroke-width:9px"/><polygon points="343.49 235.27 186.58 23.27 203.58 10.96 366.48 237.37 343.49 235.27" style="fill:#47b3b3"/><polygon points="292.69 257.22 92.69 257.22 98.69 238.22 292.69 238.22 292.69 257.22" style="fill:#47b3b3"/><polygon points="25.36 250.44 0 255.94 141.81 10.32 149.35 34.06 25.36 250.44" style="fill:#47b3b3"/><path d="M681,245l210.24-1,99.56,78.57a2.79,2.79,0,0,1,.87,1.17L1037,441.6,1007.49,487H844" transform="translate(-387.31 -203.78)" style="fill:none;stroke:#47b3b3;stroke-miterlimit:10;stroke-width:20px"/><circle cx="280.19" cy="41.72" r="13" style="fill:none;stroke:#47b3b3;stroke-miterlimit:10;stroke-width:9px"/><polygon points="455.24 290.99 334.95 131.21 358.32 130.49 471.38 278.84 455.24 290.99" style="fill:#47b3b3"/><polygon points="480.4 63.76 557.96 128.07 543.81 140.41 476.88 86.82 480.4 63.76" style="fill:#47b3b3"/><circle cx="583.19" cy="232.72" r="13" style="fill:none;stroke:#47b3b3;stroke-miterlimit:10;stroke-width:9px"/><polygon points="572.29 225.66 537.67 131.03 556.12 127.5 588.01 218.04 572.29 225.66" style="fill:#47b3b3"/></svg>